<mxfile host="app.diagrams.net" modified="2024-04-26T09:32:40.838Z" agent="Mozilla/5.0 (Windows NT 10.0; Win64; x64) AppleWebKit/537.36 (KHTML, like Gecko) Chrome/124.0.0.0 Safari/537.36" etag="pRjzQJtuWBooZB0JGuqP" version="24.3.0" type="device">
  <diagram name="Page-1" id="GK2grREq74p1vgW_K4nI">
    <mxGraphModel dx="2261" dy="738" grid="1" gridSize="10" guides="1" tooltips="1" connect="1" arrows="1" fold="1" page="1" pageScale="1" pageWidth="827" pageHeight="1169" math="0" shadow="0">
      <root>
        <mxCell id="0" />
        <mxCell id="1" parent="0" />
        <mxCell id="Od3VkD_ERIKgH5xNkcXA-2" value="" style="swimlane;startSize=0;" parent="1" vertex="1">
          <mxGeometry x="160" y="430" width="740" height="1060" as="geometry">
            <mxRectangle x="130" y="100" width="770" height="310" as="alternateBounds" />
          </mxGeometry>
        </mxCell>
        <mxCell id="Od3VkD_ERIKgH5xNkcXA-12" value="prijava/registracija" style="ellipse;whiteSpace=wrap;html=1;" parent="Od3VkD_ERIKgH5xNkcXA-2" vertex="1">
          <mxGeometry x="70" y="80" width="200" height="60" as="geometry" />
        </mxCell>
        <mxCell id="Od3VkD_ERIKgH5xNkcXA-18" value="Upravljanje entitete (podatki o tarči)&amp;nbsp;" style="ellipse;whiteSpace=wrap;html=1;" parent="Od3VkD_ERIKgH5xNkcXA-2" vertex="1">
          <mxGeometry x="110" y="230" width="200" height="60" as="geometry" />
        </mxCell>
        <mxCell id="Od3VkD_ERIKgH5xNkcXA-17" value="Pregled entitete (podatki o tarči)&amp;nbsp;&amp;nbsp;" style="ellipse;whiteSpace=wrap;html=1;" parent="Od3VkD_ERIKgH5xNkcXA-2" vertex="1">
          <mxGeometry x="130" y="380" width="200" height="60" as="geometry" />
        </mxCell>
        <mxCell id="Od3VkD_ERIKgH5xNkcXA-16" value="Urejanje entitet (podatki o tarči)&amp;nbsp;" style="ellipse;whiteSpace=wrap;html=1;" parent="Od3VkD_ERIKgH5xNkcXA-2" vertex="1">
          <mxGeometry x="90" y="570" width="200" height="60" as="geometry" />
        </mxCell>
        <mxCell id="Od3VkD_ERIKgH5xNkcXA-15" value="Ustvarjanje entitete (podatki o tarči)&amp;nbsp;" style="ellipse;whiteSpace=wrap;html=1;" parent="Od3VkD_ERIKgH5xNkcXA-2" vertex="1">
          <mxGeometry x="120" y="470" width="200" height="60" as="geometry" />
        </mxCell>
        <mxCell id="Od3VkD_ERIKgH5xNkcXA-20" value="Brisanje entitet (podatki o tarči)&amp;nbsp;" style="ellipse;whiteSpace=wrap;html=1;" parent="Od3VkD_ERIKgH5xNkcXA-2" vertex="1">
          <mxGeometry x="80" y="660" width="200" height="60" as="geometry" />
        </mxCell>
        <mxCell id="Od3VkD_ERIKgH5xNkcXA-54" style="rounded=0;orthogonalLoop=1;jettySize=auto;html=1;exitX=0;exitY=0.5;exitDx=0;exitDy=0;entryX=1;entryY=0.5;entryDx=0;entryDy=0;dashed=1;" parent="Od3VkD_ERIKgH5xNkcXA-2" source="Od3VkD_ERIKgH5xNkcXA-24" target="Od3VkD_ERIKgH5xNkcXA-21" edge="1">
          <mxGeometry relative="1" as="geometry" />
        </mxCell>
        <mxCell id="Od3VkD_ERIKgH5xNkcXA-66" value="extends" style="edgeLabel;html=1;align=center;verticalAlign=middle;resizable=0;points=[];" parent="Od3VkD_ERIKgH5xNkcXA-54" vertex="1" connectable="0">
          <mxGeometry x="-0.1379" y="-4" relative="1" as="geometry">
            <mxPoint as="offset" />
          </mxGeometry>
        </mxCell>
        <mxCell id="Od3VkD_ERIKgH5xNkcXA-56" style="rounded=0;orthogonalLoop=1;jettySize=auto;html=1;dashed=1;entryX=1;entryY=0.5;entryDx=0;entryDy=0;" parent="Od3VkD_ERIKgH5xNkcXA-2" source="Od3VkD_ERIKgH5xNkcXA-23" target="Od3VkD_ERIKgH5xNkcXA-21" edge="1">
          <mxGeometry relative="1" as="geometry" />
        </mxCell>
        <mxCell id="Od3VkD_ERIKgH5xNkcXA-68" value="extends" style="edgeLabel;html=1;align=center;verticalAlign=middle;resizable=0;points=[];" parent="Od3VkD_ERIKgH5xNkcXA-56" vertex="1" connectable="0">
          <mxGeometry x="-0.4" y="-4" relative="1" as="geometry">
            <mxPoint as="offset" />
          </mxGeometry>
        </mxCell>
        <mxCell id="Od3VkD_ERIKgH5xNkcXA-57" style="rounded=0;orthogonalLoop=1;jettySize=auto;html=1;exitX=0;exitY=0.5;exitDx=0;exitDy=0;entryX=1;entryY=0.5;entryDx=0;entryDy=0;dashed=1;" parent="Od3VkD_ERIKgH5xNkcXA-2" source="Od3VkD_ERIKgH5xNkcXA-25" target="Od3VkD_ERIKgH5xNkcXA-21" edge="1">
          <mxGeometry relative="1" as="geometry" />
        </mxCell>
        <mxCell id="Od3VkD_ERIKgH5xNkcXA-69" value="extends" style="edgeLabel;html=1;align=center;verticalAlign=middle;resizable=0;points=[];" parent="Od3VkD_ERIKgH5xNkcXA-57" vertex="1" connectable="0">
          <mxGeometry x="-0.3509" y="-2" relative="1" as="geometry">
            <mxPoint x="-1" as="offset" />
          </mxGeometry>
        </mxCell>
        <mxCell id="Od3VkD_ERIKgH5xNkcXA-58" style="rounded=0;orthogonalLoop=1;jettySize=auto;html=1;exitX=0;exitY=0.5;exitDx=0;exitDy=0;entryX=1;entryY=0.5;entryDx=0;entryDy=0;dashed=1;" parent="Od3VkD_ERIKgH5xNkcXA-2" source="Od3VkD_ERIKgH5xNkcXA-26" target="Od3VkD_ERIKgH5xNkcXA-21" edge="1">
          <mxGeometry relative="1" as="geometry" />
        </mxCell>
        <mxCell id="Od3VkD_ERIKgH5xNkcXA-70" value="extends" style="edgeLabel;html=1;align=center;verticalAlign=middle;resizable=0;points=[];" parent="Od3VkD_ERIKgH5xNkcXA-58" vertex="1" connectable="0">
          <mxGeometry x="-0.343" y="1" relative="1" as="geometry">
            <mxPoint as="offset" />
          </mxGeometry>
        </mxCell>
        <mxCell id="Od3VkD_ERIKgH5xNkcXA-59" style="rounded=0;orthogonalLoop=1;jettySize=auto;html=1;exitX=0;exitY=0.5;exitDx=0;exitDy=0;entryX=1;entryY=0.5;entryDx=0;entryDy=0;dashed=1;" parent="Od3VkD_ERIKgH5xNkcXA-2" source="Od3VkD_ERIKgH5xNkcXA-27" target="Od3VkD_ERIKgH5xNkcXA-21" edge="1">
          <mxGeometry relative="1" as="geometry" />
        </mxCell>
        <mxCell id="Od3VkD_ERIKgH5xNkcXA-71" value="extends" style="edgeLabel;html=1;align=center;verticalAlign=middle;resizable=0;points=[];" parent="Od3VkD_ERIKgH5xNkcXA-59" vertex="1" connectable="0">
          <mxGeometry x="-0.2299" y="-2" relative="1" as="geometry">
            <mxPoint as="offset" />
          </mxGeometry>
        </mxCell>
        <mxCell id="Od3VkD_ERIKgH5xNkcXA-21" value="Uporaba varnostnih orodij" style="ellipse;whiteSpace=wrap;html=1;" parent="Od3VkD_ERIKgH5xNkcXA-2" vertex="1">
          <mxGeometry x="70" y="790" width="200" height="60" as="geometry" />
        </mxCell>
        <mxCell id="Od3VkD_ERIKgH5xNkcXA-22" value="Pridobivanje informacij o domenah in IP naslovih" style="ellipse;whiteSpace=wrap;html=1;" parent="Od3VkD_ERIKgH5xNkcXA-2" vertex="1">
          <mxGeometry x="440" y="640" width="210" height="60" as="geometry" />
        </mxCell>
        <mxCell id="Od3VkD_ERIKgH5xNkcXA-23" value="Preverjanje, ali so bili podatki tarče že razkriti" style="ellipse;whiteSpace=wrap;html=1;" parent="Od3VkD_ERIKgH5xNkcXA-2" vertex="1">
          <mxGeometry x="440" y="720" width="200" height="60" as="geometry" />
        </mxCell>
        <mxCell id="Od3VkD_ERIKgH5xNkcXA-24" value="Skeniranje omrežja tarče" style="ellipse;whiteSpace=wrap;html=1;" parent="Od3VkD_ERIKgH5xNkcXA-2" vertex="1">
          <mxGeometry x="440" y="540" width="200" height="60" as="geometry" />
        </mxCell>
        <mxCell id="Od3VkD_ERIKgH5xNkcXA-25" value="Pregled TLS in DNSsec konfiguracij" style="ellipse;whiteSpace=wrap;html=1;" parent="Od3VkD_ERIKgH5xNkcXA-2" vertex="1">
          <mxGeometry x="440" y="810" width="200" height="60" as="geometry" />
        </mxCell>
        <mxCell id="Od3VkD_ERIKgH5xNkcXA-26" value="Preverjanje obstoja in veljavnosti e-poštnih naslovov" style="ellipse;whiteSpace=wrap;html=1;" parent="Od3VkD_ERIKgH5xNkcXA-2" vertex="1">
          <mxGeometry x="440" y="900" width="200" height="60" as="geometry" />
        </mxCell>
        <mxCell id="Od3VkD_ERIKgH5xNkcXA-27" value="Generiranje e-naslova za možni napad&amp;nbsp;" style="ellipse;whiteSpace=wrap;html=1;" parent="Od3VkD_ERIKgH5xNkcXA-2" vertex="1">
          <mxGeometry x="445" y="990" width="200" height="60" as="geometry" />
        </mxCell>
        <mxCell id="Od3VkD_ERIKgH5xNkcXA-55" style="rounded=0;orthogonalLoop=1;jettySize=auto;html=1;exitX=0;exitY=0.5;exitDx=0;exitDy=0;entryX=1;entryY=0.5;entryDx=0;entryDy=0;dashed=1;" parent="Od3VkD_ERIKgH5xNkcXA-2" source="Od3VkD_ERIKgH5xNkcXA-22" target="Od3VkD_ERIKgH5xNkcXA-21" edge="1">
          <mxGeometry relative="1" as="geometry" />
        </mxCell>
        <mxCell id="Od3VkD_ERIKgH5xNkcXA-67" value="extends" style="edgeLabel;html=1;align=center;verticalAlign=middle;resizable=0;points=[];" parent="Od3VkD_ERIKgH5xNkcXA-55" vertex="1" connectable="0">
          <mxGeometry x="-0.4188" y="3" relative="1" as="geometry">
            <mxPoint as="offset" />
          </mxGeometry>
        </mxCell>
        <mxCell id="Od3VkD_ERIKgH5xNkcXA-72" value="Threat Insight" style="text;html=1;align=center;verticalAlign=middle;resizable=0;points=[];autosize=1;strokeColor=none;fillColor=none;fontSize=17;" parent="Od3VkD_ERIKgH5xNkcXA-2" vertex="1">
          <mxGeometry x="320" width="130" height="30" as="geometry" />
        </mxCell>
        <mxCell id="Od3VkD_ERIKgH5xNkcXA-31" value="" style="edgeStyle=orthogonalEdgeStyle;rounded=0;orthogonalLoop=1;jettySize=auto;html=1;" parent="1" source="Od3VkD_ERIKgH5xNkcXA-3" target="Od3VkD_ERIKgH5xNkcXA-28" edge="1">
          <mxGeometry relative="1" as="geometry" />
        </mxCell>
        <mxCell id="Od3VkD_ERIKgH5xNkcXA-60" style="rounded=0;orthogonalLoop=1;jettySize=auto;html=1;exitX=1;exitY=0.3333333333333333;exitDx=0;exitDy=0;exitPerimeter=0;" parent="1" source="Od3VkD_ERIKgH5xNkcXA-3" target="Od3VkD_ERIKgH5xNkcXA-18" edge="1">
          <mxGeometry relative="1" as="geometry" />
        </mxCell>
        <mxCell id="Od3VkD_ERIKgH5xNkcXA-61" style="rounded=0;orthogonalLoop=1;jettySize=auto;html=1;exitX=1;exitY=0.3333333333333333;exitDx=0;exitDy=0;exitPerimeter=0;entryX=0;entryY=0.5;entryDx=0;entryDy=0;" parent="1" source="Od3VkD_ERIKgH5xNkcXA-3" target="Od3VkD_ERIKgH5xNkcXA-21" edge="1">
          <mxGeometry relative="1" as="geometry" />
        </mxCell>
        <mxCell id="Od3VkD_ERIKgH5xNkcXA-3" value="Penertracijski tester/&lt;div&gt;etični heker - prijavljen uporabnik&lt;/div&gt;" style="shape=umlActor;verticalLabelPosition=bottom;verticalAlign=top;html=1;outlineConnect=0;" parent="1" vertex="1">
          <mxGeometry x="40" y="1010" width="30" height="60" as="geometry" />
        </mxCell>
        <mxCell id="Od3VkD_ERIKgH5xNkcXA-28" value="Neprijavljen uporabnik" style="shape=umlActor;verticalLabelPosition=bottom;verticalAlign=top;html=1;outlineConnect=0;" parent="1" vertex="1">
          <mxGeometry x="40" y="510" width="30" height="60" as="geometry" />
        </mxCell>
        <mxCell id="Od3VkD_ERIKgH5xNkcXA-45" value="" style="endArrow=classic;html=1;rounded=0;exitX=1;exitY=0.3333333333333333;exitDx=0;exitDy=0;exitPerimeter=0;" parent="1" source="Od3VkD_ERIKgH5xNkcXA-28" target="Od3VkD_ERIKgH5xNkcXA-12" edge="1">
          <mxGeometry width="50" height="50" relative="1" as="geometry">
            <mxPoint x="80" y="330" as="sourcePoint" />
            <mxPoint x="130" y="280" as="targetPoint" />
          </mxGeometry>
        </mxCell>
        <mxCell id="Od3VkD_ERIKgH5xNkcXA-51" style="rounded=0;orthogonalLoop=1;jettySize=auto;html=1;exitX=1;exitY=0.3333333333333333;exitDx=0;exitDy=0;entryX=0;entryY=0.5;entryDx=0;entryDy=0;exitPerimeter=0;" parent="1" source="Od3VkD_ERIKgH5xNkcXA-3" target="Od3VkD_ERIKgH5xNkcXA-20" edge="1">
          <mxGeometry relative="1" as="geometry" />
        </mxCell>
        <mxCell id="Od3VkD_ERIKgH5xNkcXA-50" style="rounded=0;orthogonalLoop=1;jettySize=auto;html=1;entryX=0;entryY=0.5;entryDx=0;entryDy=0;exitX=1;exitY=0.3333333333333333;exitDx=0;exitDy=0;exitPerimeter=0;" parent="1" source="Od3VkD_ERIKgH5xNkcXA-3" target="Od3VkD_ERIKgH5xNkcXA-16" edge="1">
          <mxGeometry relative="1" as="geometry">
            <mxPoint x="80" y="600" as="sourcePoint" />
            <mxPoint x="499" y="385" as="targetPoint" />
          </mxGeometry>
        </mxCell>
        <mxCell id="Od3VkD_ERIKgH5xNkcXA-48" value="" style="endArrow=classic;html=1;rounded=0;entryX=0.055;entryY=0.756;entryDx=0;entryDy=0;entryPerimeter=0;exitX=1;exitY=0.3333333333333333;exitDx=0;exitDy=0;exitPerimeter=0;" parent="1" source="Od3VkD_ERIKgH5xNkcXA-3" target="Od3VkD_ERIKgH5xNkcXA-15" edge="1">
          <mxGeometry width="50" height="50" relative="1" as="geometry">
            <mxPoint x="389" y="390" as="sourcePoint" />
            <mxPoint x="439" y="340" as="targetPoint" />
          </mxGeometry>
        </mxCell>
        <mxCell id="Od3VkD_ERIKgH5xNkcXA-49" style="rounded=0;orthogonalLoop=1;jettySize=auto;html=1;entryX=0.047;entryY=0.756;entryDx=0;entryDy=0;entryPerimeter=0;exitX=1;exitY=0.3333333333333333;exitDx=0;exitDy=0;exitPerimeter=0;" parent="1" source="Od3VkD_ERIKgH5xNkcXA-3" target="Od3VkD_ERIKgH5xNkcXA-17" edge="1">
          <mxGeometry relative="1" as="geometry">
            <mxPoint x="80" y="600" as="sourcePoint" />
          </mxGeometry>
        </mxCell>
      </root>
    </mxGraphModel>
  </diagram>
</mxfile>
